<svg xmlns="http://www.w3.org/2000/svg" width="116.75" height="21.16" viewBox="0 0 116.75 21.16">
  <metadata><?xpacket begin="﻿" id="W5M0MpCehiHzreSzNTczkc9d"?>
<x:xmpmeta xmlns:x="adobe:ns:meta/" x:xmptk="Adobe XMP Core 5.6-c138 79.159824, 2016/09/14-01:09:01        ">
   <rdf:RDF xmlns:rdf="http://www.w3.org/1999/02/22-rdf-syntax-ns#">
      <rdf:Description rdf:about=""/>
   </rdf:RDF>
</x:xmpmeta>

<?xpacket end="w"?></metadata>
<defs>
    <style>
      .cls-1 {
        fill-rule: evenodd;
        fill: #fff;
      }
    </style>
  </defs>
  <path id="HOURLY_logo" data-name="HOURLY" class="cls-1 hourly_logo" d="M1690.01,7493h-9.02a2.979,2.979,0,0,1-2.99-2.96v-15.08a2.979,2.979,0,0,1,2.99-2.96h0.6a2.979,2.979,0,0,1,2.99,2.96v11.52h5.43a2.981,2.981,0,0,1,2.99,2.97v0.59A2.979,2.979,0,0,1,1690.01,7493Zm-91.06-.26a0.866,0.866,0,0,0,1-1.01v-6.22h4.68v6.22a0.873,0.873,0,0,0,1.01,1.01h4.34a0.873,0.873,0,0,0,1.01-1.01v-18.14a0.873,0.873,0,0,0-1.01-1.01h-4.34a0.873,0.873,0,0,0-1.01,1.01v6.07h-4.68v-6.07a0.866,0.866,0,0,0-1-1.01h-4.34a0.873,0.873,0,0,0-1.01,1.01v18.14a0.873,0.873,0,0,0,1.01,1.01h4.34Zm33.26-5.29v-9.55c0-3.42-1.68-5.74-8.68-5.74s-8.71,2.32-8.71,5.74v9.55c0,3.41,1.71,5.71,8.71,5.71S1632.21,7490.86,1632.21,7487.45Zm-11.03-1.01v-7.53c0-.73.33-1.29,2.35-1.29,2.04,0,2.35.56,2.35,1.29v7.53c0,0.75-.31,1.31-2.35,1.31C1621.51,7487.75,1621.18,7487.19,1621.18,7486.44Zm32.03,1.01v-13.86a0.873,0.873,0,0,0-1.01-1.01h-4.25a0.862,0.862,0,0,0-1.01,1.01v12.76c0,0.76-.34,1.32-2.33,1.32-1.96,0-2.29-.56-2.29-1.32v-12.76a0.873,0.873,0,0,0-1.01-1.01h-4.4a0.866,0.866,0,0,0-1,1.01v13.86c0,3.41,1.7,5.71,8.65,5.71S1653.21,7490.86,1653.21,7487.45Zm10.33-9.83h2.1a1.105,1.105,0,0,1,1.23,1.31v0.96a1.105,1.105,0,0,1-1.23,1.31h-2.1v-3.58Zm-1.01,15.12a0.873,0.873,0,0,0,1.01-1.01v-5.49h3.92a0.972,0.972,0,0,1,1.07,1.21v4.28a0.866,0.866,0,0,0,1,1.01h4.34a0.873,0.873,0,0,0,1.01-1.01v-5.94a3.726,3.726,0,0,0-3.39-4.06c1.18-.5,1.57-1.62,1.57-3.19v-1.29c0-2.77-1.31-4.67-5.51-4.67h-9.33a0.873,0.873,0,0,0-1.01,1.01v18.14a0.873,0.873,0,0,0,1.01,1.01h4.31Zm41.5,0a0.873,0.873,0,0,0,1.01-1.01v-3.56l4.25-5.76a4.617,4.617,0,0,0,1.07-3.45v-5.37a0.873,0.873,0,0,0-1.01-1.01h-4.17a0.873,0.873,0,0,0-1.01,1.01v4.59a2,2,0,0,1-.25,1.17l-1.29,2.02a0.733,0.733,0,0,1-.67.48h-0.28a0.736,0.736,0,0,1-.68-0.48l-1.28-2.02a1.932,1.932,0,0,1-.26-1.17v-4.59a0.866,0.866,0,0,0-1-1.01h-4.32a0.866,0.866,0,0,0-1,1.01v5.37a4.493,4.493,0,0,0,1.06,3.45l4.28,5.74v3.58a0.862,0.862,0,0,0,1.01,1.01h4.54Z" transform="translate(-1593.59 -7472)"/>
</svg>
